HIERARCHY
ROOT root
{
	OFFSET	0	13.1	24.9
	CHANNELS 6  Xposition Yposition Zposition Xrotation Yrotation Zrotation
	JOINT spine_1
	{
		OFFSET	0	9.99999	0
		CHANNELS 3  Xrotation Yrotation Zrotation
		JOINT spine_2
		{
			OFFSET	0	112	-10
			CHANNELS 3  Xrotation Yrotation Zrotation
			JOINT spine_3
			{
				OFFSET	0	206.5	19.3
				CHANNELS 3  Xrotation Yrotation Zrotation
				JOINT spine_4
				{
					OFFSET	0	110.4	14.6
					CHANNELS 3  Xrotation Yrotation Zrotation
					JOINT neck_1
					{
						OFFSET	0	71.8	-50.3
						CHANNELS 3  Xrotation Yrotation Zrotation
						JOINT neck_2
						{
							OFFSET	0	86.2	-25.8
							CHANNELS 3  Xrotation Yrotation Zrotation
							JOINT head_ee
							{
								OFFSET	0	179.8	-8.7
								CHANNELS 3  Xrotation Yrotation Zrotation
								End Site
								{
									OFFSET	1	0	0
								}
							}
						}
					}
					JOINT left_clavicle
					{
						OFFSET	-43.2	22.4	-70.8
						CHANNELS 3  Xrotation Yrotation Zrotation
						JOINT left_shoulder
						{
							OFFSET	-93.9	-5.79999	48.7
							CHANNELS 3  Xrotation Yrotation Zrotation
							JOINT left_elbow
							{
								OFFSET	-291.4	-30.8	15.2
								CHANNELS 3  Xrotation Yrotation Zrotation
								JOINT left_lowarm_twist
								{
									OFFSET	-110.7	-3.89999	13.6
									CHANNELS 3  Xrotation Yrotation Zrotation
									JOINT left_hand
									{
										OFFSET	-110.7	-3.89999	13.6
										CHANNELS 3  Xrotation Yrotation Zrotation
										JOINT left_ee
										{
											OFFSET	-80.8	-5.10001	12.1
											CHANNELS 3  Xrotation Yrotation Zrotation
											End Site
											{
												OFFSET	1	0	0
											}
										}
									}
								}
							}
						}
					}
					JOINT right_clavicle
					{
						OFFSET	43.2	22.4	-70.8
						CHANNELS 3  Xrotation Yrotation Zrotation
						JOINT right_shoulder
						{
							OFFSET	93.9	-5.79999	48.7
							CHANNELS 3  Xrotation Yrotation Zrotation
							JOINT right_elbow
							{
								OFFSET	291.4	-30.8	15.2
								CHANNELS 3  Xrotation Yrotation Zrotation
								JOINT right_lowarm_twist
								{
									OFFSET	110.7	-3.89999	13.6
									CHANNELS 3  Xrotation Yrotation Zrotation
									JOINT right_hand
									{
										OFFSET	110.7	-3.89999	13.6
										CHANNELS 3  Xrotation Yrotation Zrotation
										JOINT right_ee
										{
											OFFSET	80.8	-5.10001	12.1
											CHANNELS 3  Xrotation Yrotation Zrotation
											End Site
											{
												OFFSET	1	0	0
											}
										}
									}
								}
							}
						}
					}
				}
			}
		}
	}
	JOINT left_hip
	{
		OFFSET	-82.8	-127.5	0.300001
		CHANNELS 3  Xrotation Yrotation Zrotation
		JOINT left_knee
		{
			OFFSET	-28.2	-396.7	2.2
			CHANNELS 3  Xrotation Yrotation Zrotation
			JOINT left_ankle
			{
				OFFSET	-11.7	-411.3	35.4
				CHANNELS 3  Xrotation Yrotation Zrotation
				JOINT left_toes
				{
					OFFSET	0	-60	-88.6
					CHANNELS 3  Xrotation Yrotation Zrotation
					JOINT left_foot_ee
					{
						OFFSET	-22.5	-16.5	-42.2
						CHANNELS 3  Xrotation Yrotation Zrotation
						End Site
						{
							OFFSET	1	0	0
						}
					}
				}
			}
		}
	}
	JOINT right_hip
	{
		OFFSET	82.8	-127.5	0.300001
		CHANNELS 3  Xrotation Yrotation Zrotation
		JOINT right_knee
		{
			OFFSET	28.2	-396.7	2.2
			CHANNELS 3  Xrotation Yrotation Zrotation
			JOINT right_ankle
			{
				OFFSET	11.7	-411.3	35.4
				CHANNELS 3  Xrotation Yrotation Zrotation
				JOINT right_toes
				{
					OFFSET	0	-60	-88.6
					CHANNELS 3  Xrotation Yrotation Zrotation
					JOINT right_foot_ee
					{
						OFFSET	22.5	-16.5	-42.2
						CHANNELS 3  Xrotation Yrotation Zrotation
						End Site
						{
							OFFSET	1	0	0
						}
					}
				}
			}
		}
	}
}
MOTION
Frames: 16
Frame Time: 0.02
3537.18 765.516 -586.602 -1.19497 62.0912 5.52945 -1.27837 -0.570042 -2.4769 -1.27505 -0.411326 -2.50812 -1.25378 0.180506 -2.53519 -1.26268 -0.222014 -2.5319 -6.90139 14.0639 5.76072 -6.82635 22.0055 8.57984 -0.0 0.0 -0.0 10.2067 -2.75202 20.2017 -19.5517 -14.9103 61.8654 0.541182 -15.0075 0.0712843 9.05093 0.229879 -1.13212 -0.0999727 -3.50711 -2.15689 -0.0 0.0 -0.0 11.0493 7.58012 -22.1365 -23.0741 20.738 -49.0039 0.698243 19.08 -0.117348 16.4359 -0.28348 2.07322 0.244672 15.0753 4.76922 0.0 0.0 0.0 7.02122 -3.17387 -8.11157 -19.7874 0.298108 3.00683 14.3942 -1.03019 -2.03586 2.81484 -0.0 -0.0 -0.0 0.0 -0.0 -1.98826 0.00975483 -2.36798 -3.91191 -0.141182 -0.583642 -10.4881 -28.8281 -1.66649 3.84271 -0.0 -0.0 0.0 0.0 0.0 
3529.13 770.844 -584.916 0.385273 62.7569 3.47978 -1.27987 -0.597137 -2.52672 -1.27642 -0.435199 -2.55957 -1.25356 0.169164 -2.59076 -1.26285 -0.241982 -2.58498 -7.32855 12.5944 6.50106 -7.24278 18.8117 9.07124 -0.0 0.0 -0.0 9.8594 -3.46382 19.4897 -20.1814 -17.2342 61.8594 0.621072 -17.1012 0.0933815 10.4862 0.249789 -1.31436 -0.0386282 -3.53506 -1.75592 -0.0 0.0 -0.0 11.0133 6.90263 -22.0475 -24.0343 19.3562 -48.1215 0.723829 19.726 -0.125848 16.9434 -0.282703 2.13804 0.735385 16.645 2.15366 0.0 0.0 0.0 5.21153 -1.28227 -6.18257 -17.8492 0.315039 2.70994 15.4295 3.67582 -2.1536 -0.901709 0.0 0.0 -0.0 0.0 -0.0 2.12748 -0.853187 -6.28078 -6.7072 -0.217481 -1.0058 -16.0989 -30.3303 -2.59777 2.28019 -0.0 -0.0 0.0 0.0 0.0 
3528.8 768.686 -580.297 -1.39186 62.1393 5.03816 -1.06729 -0.602841 -2.52397 -1.06385 -0.441066 -2.55719 -1.04096 0.153282 -2.59039 -1.05023 -0.257606 -2.58211 -7.30603 12.5937 6.48965 -7.21992 18.8139 9.05674 -0.0 0.0 -0.0 9.8777 -3.61614 19.5321 -19.9621 -17.3337 61.6268 0.634156 -17.4398 0.0972659 10.4846 0.249769 -1.31416 -0.0368286 -3.54218 -1.74684 -0.0 0.0 -0.0 10.9947 6.90928 -22.0068 -24.0399 19.3539 -48.1195 0.723701 19.7228 -0.125805 16.9297 -0.282732 2.13629 0.735476 16.6449 2.153 0.0 0.0 0.0 5.09575 -1.26849 -6.12974 -17.7949 0.315368 2.70161 15.4316 3.51633 -2.15428 -0.872454 0.0 0.0 -0.0 0.0 -0.0 1.97849 -0.797856 -6.49417 -7.39082 -0.232998 -1.10956 -16.0988 -30.2766 -2.59679 2.29813 -0.0 -0.0 0.0 0.0 0.0 
3519.26 754.628 -572.792 -0.483043 61.8216 4.49506 -1.09606 -0.581039 -2.4316 -1.09287 -0.425181 -2.46362 -1.07158 0.148764 -2.49559 -1.08019 -0.24711 -2.48778 -7.38379 12.757 6.92062 -7.28512 18.8265 9.52564 -0.0 0.0 -0.0 9.9335 -3.84739 19.6559 -20.1758 -18.0532 61.1073 0.647589 -17.7862 0.101331 10.3623 0.24825 -1.29861 -0.0276255 -3.67438 -1.7411 -0.0 0.0 -0.0 10.8593 6.94396 -21.7109 -24.1738 19.2737 -48.0712 0.722584 19.6947 -0.125428 16.9225 -0.282746 2.13537 0.762383 16.4912 1.90622 0.0 0.0 0.0 5.17877 -1.24379 -5.81348 -18.2322 0.312489 2.76864 15.9354 3.36352 -2.22034 -0.844941 0.0 0.0 -0.0 0.0 -0.0 3.18443 -1.33692 -7.46835 -7.41388 -0.2335 -1.11306 -16.2265 -30.0493 -2.61356 2.24762 -0.0 -0.0 0.0 0.0 0.0 
3515.21 757.392 -565.952 -1.62477 61.0782 5.86764 -0.842476 -0.366819 -2.32868 -0.839486 -0.217938 -2.34729 -0.828269 0.314193 -2.33636 -0.835881 -0.0586281 -2.35665 -6.52221 13.2647 7.70533 -6.36652 19.0093 10.2863 -0.0 0.0 -0.0 10.1607 -3.5527 20.1299 -20.0761 -19.2266 60.5768 0.685042 -18.7447 0.11307 9.58436 0.237812 -1.19979 -0.285583 -1.55544 -2.57171 -0.0 0.0 -0.0 10.7778 7.14494 -21.5355 -24.7066 19.0235 -48.2551 0.707795 19.3218 -0.12049 17.565 -0.28097 2.2174 0.597615 14.8789 2.31233 0.0 0.0 0.0 5.60419 0.141027 -5.74391 -21.0555 0.281599 3.20071 23.3743 0.511048 -3.15909 -3.20116 0.0 0.0 -0.0 0.0 -0.0 3.93859 -1.43412 -7.54778 -10.6612 -0.290049 -1.60809 -13.4896 -29.7336 -2.16314 3.06226 -0.0 -0.0 0.0 0.0 0.0 
3506.85 749.533 -563.798 -0.288776 61.4117 4.94759 -0.700151 -0.503368 -2.28807 -0.697309 -0.356793 -2.31544 -0.680614 0.165589 -2.3369 -0.688176 -0.205455 -2.33373 -3.49536 13.7263 7.78746 -3.24693 19.051 10.0825 -0.0 0.0 -0.0 10.4899 -4.09357 20.8474 -19.9019 -20.3182 60.3279 0.72224 -19.686 0.125313 9.37897 0.234832 -1.17373 -0.235119 0.4132 -1.39437 -0.0 0.0 -0.0 10.7386 7.58918 -21.4545 -26.0442 18.943 -48.3989 0.697922 19.0718 -0.117243 18.1057 -0.278762 2.28644 0.378231 11.6934 2.42004 0.0 0.0 0.0 5.23771 1.17399 -5.86276 -23.0872 0.246218 3.51044 29.7938 -2.22436 -3.9075 -5.13034 0.0 0.0 -0.0 0.0 -0.0 4.8609 -2.43456 -6.72025 -14.8839 -0.321486 -2.25508 -10.8767 -28.7804 -1.72851 3.69133 -0.0 -0.0 0.0 0.0 0.0 
3497.73 751.828 -559.123 0.236303 61.7396 4.08053 -0.606416 -0.539137 -2.17567 -0.603871 -0.399635 -2.20555 -0.586432 0.0957152 -2.2394 -0.593337 -0.259068 -2.22643 -1.7715 12.5738 8.73423 -1.4953 15.7435 10.7652 -0.0 0.0 -0.0 10.6797 -4.20119 21.2577 -20.6708 -21.0878 59.3515 0.81103 -21.8882 0.15683 8.70202 0.22435 -1.08789 -0.340227 1.52577 -1.62054 -0.0 0.0 -0.0 10.5057 7.26245 -20.9431 -28.0133 18.6093 -48.298 0.854586 22.9445 -0.17344 18.3343 -0.277632 2.31561 0.225026 7.713 1.75466 0.0 0.0 0.0 5.26228 3.51232 -5.74345 -24.4765 0.215708 3.72145 34.9585 -5.20311 -4.47277 -7.14776 0.0 0.0 -0.0 0.0 -0.0 5.74503 -3.12933 -6.00849 -17.8127 -0.315261 -2.70434 -6.74956 -28.604 -1.06546 3.78845 -0.0 -0.0 0.0 0.0 0.0 
3495.72 754.017 -558.882 0.60413 62.3032 3.98901 -0.635594 -0.527283 -2.22208 -0.632929 -0.384855 -2.25111 -0.615667 0.121343 -2.28053 -0.622845 -0.240252 -2.27109 -1.10358 10.794 9.33945 -0.841852 11.8568 11.1699 -0.0 0.0 -0.0 10.758 -3.33722 21.3954 -21.3709 -21.6856 58.3755 0.891394 -23.8246 0.188049 6.80069 0.189492 -0.847528 -0.403153 2.05446 -1.81283 -0.0 0.0 -0.0 10.3809 6.93876 -20.6686 -29.3036 18.431 -48.5532 0.950043 25.2024 -0.212385 18.8939 -0.274376 2.38701 0.00713682 3.96642 1.63119 0.0 0.0 0.0 5.40716 5.13202 -5.79757 -23.3197 0.241469 3.5458 36.6559 -6.90803 -4.66232 -9.69296 0.0 0.0 -0.0 0.0 -0.0 6.98881 -3.86325 -4.71058 -21.3376 -0.277344 -3.24378 -2.712 -27.5429 -0.422377 4.44452 -0.0 -0.0 0.0 0.0 0.0 
3484.72 751.537 -556.693 2.56906 63.2115 1.57488 -1.10598 -0.594874 -2.38888 -1.10291 -0.441704 -2.42186 -1.0813 0.123538 -2.45869 -1.08964 -0.266197 -2.44736 -4.16017 8.5423 9.78736 -3.90436 8.13593 11.4008 -0.0 0.0 -0.0 10.7947 -2.4107 21.4354 -21.0625 -22.1366 57.8507 1.09495 -28.4749 0.277836 4.77763 0.143663 -0.593176 -0.445913 2.40314 -1.9473 -0.0 0.0 -0.0 10.1934 6.7669 -20.2609 -31.1755 18.2936 -48.3827 0.982915 25.9613 -0.226579 19.8871 -0.266881 2.51365 -0.169187 1.00164 1.55541 0.0 0.0 0.0 3.85688 6.46382 -5.00614 -22.3571 0.260197 3.39928 35.9706 -8.3484 -4.62431 -11.2641 0.0 0.0 -0.0 0.0 -0.0 11.2572 -3.70589 -1.58175 -31.1296 0.000854841 -4.71897 4.56168 -28.0373 0.701201 6.57005 -0.0 -0.0 0.0 0.0 0.0 
3476.37 749.235 -559.012 3.06803 63.994 0.672647 -1.18293 -0.60958 -2.43134 -1.17975 -0.453681 -2.46517 -1.15711 0.125085 -2.50342 -1.16575 -0.271728 -2.49178 -5.69976 7.31082 9.82257 -5.44321 6.18365 11.2526 -0.0 0.0 -0.0 10.9752 -2.74243 21.8356 -20.4459 -22.5094 57.4145 1.22569 -31.2637 0.342967 3.59744 0.112787 -0.445582 -0.541376 3.05425 -2.30019 -0.0 0.0 -0.0 10.2844 6.64253 -20.4565 -31.8495 18.2088 -48.554 0.933555 24.8181 -0.205414 20.7213 -0.25889 2.6199 -0.220401 -1.10299 1.00311 0.0 0.0 0.0 2.7205 6.85547 -4.52627 -21.6472 0.272429 3.29104 34.8715 -8.80002 -4.52689 -12.7874 0.0 0.0 -0.0 0.0 -0.0 14.5108 -1.31506 0.701632 -38.1585 0.353786 -5.73875 12.0941 -28.4905 1.8243 9.1165 -0.0 -0.0 0.0 0.0 0.0 
3466.87 749.974 -561.296 2.82996 63.0962 0.644498 -1.25107 -0.73561 -2.33215 -1.24824 -0.585761 -2.3742 -1.22084 -0.0217775 -2.44526 -1.22895 -0.407573 -2.41117 -5.71523 7.31034 9.82265 -5.45867 6.18606 11.2528 -0.0 0.0 -0.0 10.9939 -3.17808 21.8949 -20.2695 -22.6496 57.2338 1.22824 -31.3166 0.344292 3.59711 0.112778 -0.445541 -0.541368 3.0513 -2.3014 -0.0 0.0 -0.0 10.2799 6.63476 -20.4466 -31.7716 18.0167 -48.416 0.908562 24.231 -0.19504 20.7355 -0.258741 2.62171 -0.222131 -1.115 1.00954 0.0 0.0 0.0 2.71266 6.86796 -4.4832 -21.6717 0.27203 3.29477 34.7342 -8.78625 -4.51313 -12.8238 0.0 0.0 -0.0 0.0 -0.0 14.7842 -0.880767 0.341958 -37.4398 0.311974 -5.63652 12.2412 -28.1188 1.84112 9.13054 -0.0 -0.0 0.0 0.0 0.0 
3460.62 748.138 -560.878 2.97898 62.5958 0.697568 -1.26578 -0.841595 -2.41689 -1.26279 -0.686145 -2.4655 -1.2298 -0.0980641 -2.55726 -1.23857 -0.500577 -2.50974 -5.63203 7.33287 9.70423 -5.38177 6.29877 11.1363 -0.0 0.0 -0.0 10.9607 -3.64647 21.8425 -20.1567 -22.9069 57.0701 1.24682 -31.6998 0.354001 3.58293 0.112388 -0.44377 -0.530655 2.98908 -2.25726 -0.0 0.0 -0.0 10.2829 6.50337 -20.4516 -31.7056 17.8689 -48.3838 0.891821 23.8347 -0.188222 20.7575 -0.258508 2.62451 -0.220816 -1.11868 0.99921 0.0 0.0 0.0 2.33938 7.04216 -4.17003 -21.6876 0.27177 3.29719 34.4899 -8.75446 -4.48839 -12.8943 0.0 0.0 -0.0 0.0 -0.0 15.3714 -0.566243 -0.076118 -36.6701 0.268626 -5.52647 12.3432 -27.817 1.85225 9.12326 -0.0 -0.0 0.0 0.0 0.0 
3453.96 744.573 -560.728 2.80378 62.4517 1.14918 -1.2747 -0.898858 -2.47697 -1.27159 -0.739473 -2.5291 -1.23526 -0.135061 -2.63146 -1.2445 -0.548817 -2.57717 -5.60678 7.63926 9.7619 -5.35386 6.81637 11.2476 -0.0 0.0 -0.0 10.9254 -3.75177 21.7706 -19.4438 -23.9627 56.9928 1.31616 -33.1022 0.391157 3.30076 0.104547 -0.40858 -0.504018 2.83851 -2.14561 -0.0 0.0 -0.0 10.1959 6.38525 -20.2623 -31.728 17.6336 -48.4884 0.880301 23.5606 -0.183592 21.1037 -0.25471 2.66856 -0.153478 -0.853025 0.663374 0.0 0.0 0.0 -0.374922 7.34193 -3.6206 -16.8391 0.319878 2.55504 34.3787 -8.02271 -4.4632 -12.9596 0.0 0.0 -0.0 0.0 -0.0 17.1808 0.0577454 -0.109999 -34.3988 0.149395 -5.19853 12.2632 -27.0249 1.83167 9.13558 -0.0 -0.0 0.0 0.0 0.0 
3441.23 744.708 -562.52 5.73261 62.5417 -1.42472 -1.57086 -0.929516 -2.4284 -1.56791 -0.773157 -2.48258 -1.5305 -0.165241 -2.59486 -1.53944 -0.572845 -2.53627 -6.42502 7.68295 9.90973 -6.16498 6.96723 11.4172 -0.0 0.0 -0.0 10.815 -3.83648 21.5362 -18.0868 -25.4508 57.4184 1.44749 -35.64 0.465317 2.90045 0.0931251 -0.358721 -0.483282 2.62455 -2.10012 -0.0 0.0 -0.0 9.99175 5.97884 -19.8182 -31.9873 17.268 -48.671 0.87293 23.3846 -0.180656 21.4636 -0.250479 2.71434 -0.102844 -0.649174 0.412182 0.0 0.0 0.0 -3.79898 7.64693 -2.35155 -13.6634 0.317301 2.06787 33.3065 -7.39451 -4.34446 -13.2174 0.0 0.0 -0.0 0.0 -0.0 19.7861 0.313831 -1.04988 -31.9996 0.0377054 -4.8474 12.0037 -26.2074 1.78572 9.13667 -0.0 -0.0 0.0 0.0 0.0 
3434.8 762.017 -561.668 6.42289 62.011 -1.67142 -1.67689 -0.901864 -2.63156 -1.67333 -0.732645 -2.68356 -1.63445 -0.0733251 -2.78074 -1.64487 -0.511405 -2.73433 -6.98535 7.72864 9.99918 -6.7213 7.11077 11.5269 -0.0 0.0 -0.0 10.648 -3.77089 21.1757 -17.1459 -26.3899 57.6542 1.54607 -37.445 0.52402 2.6226 0.0849931 -0.324162 -0.469082 2.4486 -2.08149 -0.0 0.0 -0.0 9.90368 5.67344 -19.6258 -32.1284 17.0567 -48.9343 0.866773 23.2372 -0.17822 21.716 -0.24734 2.74643 -0.067393 -0.506586 0.236049 0.0 0.0 0.0 -5.10582 7.74744 -1.56477 -10.8255 0.292162 1.6332 32.5531 -6.92066 -4.25954 -13.4017 0.0 0.0 -0.0 0.0 -0.0 20.3672 0.618282 -1.40572 -30.6298 -0.0194284 -4.64495 11.8266 -25.6072 1.75439 9.15392 -0.0 -0.0 0.0 0.0 0.0 
3424.17 759.647 -561.36 6.5095 61.3753 -1.37835 -1.82286 -0.741258 -2.76394 -1.81879 -0.56395 -2.80547 -1.78627 0.127327 -2.85871 -1.79753 -0.325565 -2.84298 -7.43409 7.76529 9.98858 -7.1716 7.28675 11.5348 -0.0 0.0 -0.0 10.711 -3.59023 21.3042 -16.4811 -27.0436 57.9679 1.62401 -38.8132 0.572149 2.32899 0.076217 -0.287684 -0.477566 2.30286 -2.20035 -0.0 0.0 -0.0 9.70611 5.52302 -19.2019 -32.3884 16.8034 -49.0285 0.855902 22.9762 -0.173953 21.9641 -0.244117 2.77796 -0.0548653 -0.549783 0.134284 0.0 0.0 0.0 -6.22596 7.73935 -2.66175 -8.69596 0.259178 1.30812 31.7648 -6.48212 -4.17085 -13.5624 0.0 0.0 -0.0 0.0 -0.0 21.314 1.40439 0.0436623 -28.8472 -0.0864929 -4.37961 11.9502 -25.0614 1.76666 9.16223 -0.0 -0.0 0.0 0.0 0.0 
